<svg width="9" height="18" viewBox="0 0 9 18"  xmlns="http://www.w3.org/2000/svg">
<path d="M0.0199784 17.8297C0.0550294 17.9342 0.133894 18 0.220061 18C1.92686 18 3.52313 17.1556 4.48357 15.7447L8.94304 9.19355C9.01899 9.08323 9.01899 8.91484 8.94304 8.80258L4.48404 2.25502C3.52328 0.844243 1.92691 1.55269e-06 0.220061 4.14733e-06C0.133894 4.14733e-06 0.0564899 0.0677461 0.0199784 0.170327C-0.016533 0.274843 -0.00192847 0.396778 0.0550294 0.48194L2.03492 3.45219C4.27293 6.80967 4.27384 11.1832 2.03724 14.5416L0.0550294 17.5181C-0.00192847 17.6032 -0.0150726 17.7252 0.0199784 17.8297Z" fill="#002B87"/>
</svg>
