<svg width="282" height="91" viewBox="0 0 282 91" fill="none" xmlns="http://www.w3.org/2000/svg">
<path d="M54.714 10.4555L54.693 0.0255699H54.1996L54.2221 10.2421C54.2236 11.0948 53.9234 11.9094 53.3989 12.4805L46.9096 19.0768L46.9026 15.5187V15.4978C46.9274 14.9461 47.1354 14.4279 47.4822 14.0671L52.4477 9.07365C52.8783 8.62443 53.1258 7.96417 53.1188 7.27055L53.0831 3.46108L53.0754 -3.43323e-05L52.592 0.00151825L52.5998 3.29272C52.6013 3.95918 52.367 4.59383 51.9581 5.03996L46.8041 10.3011C46.7234 10.3887 46.652 10.4857 46.5876 10.5905C46.5224 10.4857 46.4503 10.3887 46.3688 10.3026L41.1512 5.0609C40.7415 4.61789 40.5041 3.98323 40.5041 3.31599L40.4971 0.0255699L40.0138 0.0271225L40.0215 3.48824L40.0006 7.29771C39.9959 7.99055 40.245 8.64848 40.6787 9.09538L45.6636 14.0694C46.0119 14.431 46.2206 14.9461 46.2493 15.4993V15.5203L46.2571 19.0784L39.7391 12.5045C39.2131 11.9373 38.912 11.125 38.9105 10.2739L38.8895 0.0573807H38.3976L38.4186 10.488L38.3914 15.2759C38.3868 16.1332 38.6925 16.9432 39.2278 17.4964L45.489 23.7452C45.9336 24.2014 46.2074 24.8678 46.2416 25.5793L46.2641 42.2549L46.5861 42.6172L46.9492 42.2549L46.9181 25.6057V25.5746C46.9523 24.8678 47.2238 24.1967 47.6653 23.739L53.9311 17.4661C54.4649 16.9114 54.7675 16.0991 54.759 15.2433L54.714 10.4555ZM44.6138 27.0449L38.0888 20.4617C37.5628 19.8922 37.2602 19.0799 37.2587 18.2265L37.2207 0.0597115H36.7272V23.2308C36.7233 24.0881 37.0391 24.8973 37.576 25.4505L43.8356 31.6985C44.3182 32.1951 44.596 32.9197 44.5975 33.6855L44.6107 40.6147L45.3028 41.3006L45.3082 28.931C45.3098 28.2095 45.0576 27.5221 44.6138 27.0449ZM56.4449 0.020916L55.8692 0.0224686L55.9057 18.1892C55.9065 19.0427 55.6085 19.8566 55.0841 20.4276L48.5839 27.0371C48.1417 27.5158 47.8926 28.2048 47.8973 28.9264V41.3068L48.6405 40.6085V40.5937L48.6274 33.677C48.6258 32.912 48.9005 32.1857 49.3807 31.6876L55.6163 25.4148C56.1501 24.8585 56.4511 24.0493 56.4449 23.192V0.020916Z" fill="white"/>
<path d="M24.2262 17.3053L16.0618 10.8144L15.7538 11.2L23.7529 17.5567C24.4202 18.0881 24.8694 18.8299 24.9881 19.5964L26.0953 28.7826L23.3099 26.5691L23.2936 26.5559C22.8785 26.192 22.6023 25.7063 22.5372 25.2097L21.7318 18.2146C21.6504 17.5978 21.288 16.9918 20.7418 16.5651L17.7424 14.2166L15.0331 12.0628L14.7328 12.4414L17.3094 14.4889C17.8308 14.9032 18.1815 15.4828 18.2746 16.0802L19.1707 23.3904C19.1893 23.5083 19.2204 23.6247 19.2623 23.7403C19.1397 23.7263 19.0186 23.7217 18.8999 23.7317L11.5487 24.5394C10.9474 24.5836 10.3026 24.3726 9.78203 23.9567L7.2054 21.9092L6.90514 22.2879L9.61444 24.4409L12.579 26.8336C13.1175 27.2704 13.787 27.4853 14.4069 27.4256L21.4044 26.6335C21.9041 26.5861 22.4371 26.7444 22.8879 27.0679L22.9042 27.0803L25.6887 29.2939L16.4847 30.2862C15.7135 30.3444 14.8911 30.0728 14.2246 29.5422L6.22704 23.1848L5.9198 23.5696L14.0857 30.0612L17.8106 33.0692C18.4779 33.6077 19.3011 33.8738 20.0676 33.8001L28.8573 32.8062C29.4912 32.7434 30.1825 32.9451 30.7605 33.3617L43.8066 43.7482L44.2907 43.7225L44.2341 43.2128L31.2028 32.8504L31.1787 32.8302C30.6472 32.3624 30.2927 31.7324 30.2104 31.1016L29.2173 22.291C29.1165 21.5275 28.6703 20.7842 27.9961 20.2574L24.2262 17.3053ZM30.8901 35.5489L21.6744 36.5412C20.9009 36.597 20.0769 36.3263 19.4097 35.7956L5.18816 24.4905L4.88092 24.8761L22.9887 39.332C23.656 39.8704 24.4861 40.1288 25.2535 40.0543L34.0408 39.0604C34.7306 38.9921 35.47 39.228 36.0697 39.7044L41.493 44.0166L42.4605 43.9041L32.7971 36.182C32.2339 35.7312 31.5403 35.4992 30.8901 35.5489ZM17.1519 9.44272L16.7935 9.89349L31.0134 21.1993C31.6815 21.73 32.1315 22.471 32.2502 23.2375L33.3612 32.4408C33.459 33.0855 33.8422 33.7101 34.4086 34.157L44.0836 41.8799L44.0029 40.8635L43.9913 40.8542L38.5773 36.5497C37.9783 36.0733 37.5819 35.4061 37.4927 34.7202L36.4802 25.9336C36.3785 25.1694 35.9339 24.4285 35.2597 23.8985L17.1519 9.44272Z" fill="white"/>
<path d="M10.5587 45.4054L0.392586 47.7361L0.501982 48.2179L10.4594 45.9322C11.2911 45.7421 12.1515 45.8539 12.8242 46.2395L20.6945 51.1057L17.2272 51.9009L17.2063 51.9056C16.6631 52.0033 16.1107 51.9157 15.6825 51.6573L9.71299 47.9215C9.17998 47.6011 8.48093 47.5057 7.80671 47.6671L4.09965 48.5453L0.726205 49.3196L0.834826 49.7906L4.04223 49.0543C4.69163 48.9045 5.36275 48.9922 5.888 49.2925L12.1601 53.1532C12.264 53.2121 12.3742 53.2602 12.4906 53.2998C12.4029 53.3867 12.3245 53.4782 12.2586 53.5776L8.30326 59.8263C7.96188 60.3237 7.39472 60.6961 6.74533 60.8435L3.53792 61.5798L3.64654 62.0507L7.01921 61.2764L10.7387 60.4532C11.416 60.3035 12.0018 59.9156 12.3424 59.3934L16.0882 53.4301C16.3629 53.0104 16.8199 52.6923 17.3529 52.5418L17.3731 52.5379L20.8404 51.7419L15.8741 59.554C15.4381 60.1925 14.7126 60.6666 13.8825 60.8567L3.9243 63.14L4.0337 63.6203L14.2006 61.2888L18.8759 60.2538C19.7123 60.0684 20.4346 59.5912 20.8551 58.9465L25.5615 51.4571C25.9083 50.9226 26.4972 50.5075 27.183 50.3166L43.4396 46.6002L43.722 46.2053L43.2883 45.9322L27.0597 49.6509L27.0294 49.6579C26.3327 49.7813 25.6181 49.6649 25.0735 49.3359L17.5686 44.6156C16.9099 44.2176 16.0502 44.1028 15.2177 44.3014L10.5587 45.4054ZM28.9729 51.5797L23.9997 59.4004C23.5605 60.0397 22.8351 60.5153 22.0042 60.7054L4.29671 64.767L4.40611 65.248L27.0015 60.1142C27.8379 59.9287 28.5579 59.4415 28.9784 58.7952L33.684 51.3074C34.061 50.7263 34.7058 50.2957 35.4529 50.1242L42.2068 48.5756L42.722 47.7493L30.6589 50.4842C29.9544 50.6425 29.3399 51.0405 28.9729 51.5797ZM0 46.0292L0.128793 46.5902L17.8363 42.5301C18.668 42.34 19.5276 42.4502 20.2011 42.8358L28.0861 47.709C28.651 48.0348 29.3779 48.1248 30.0809 47.9611L42.1533 45.2177L41.3083 44.6474L41.2936 44.6505L34.5514 46.196C33.8058 46.3667 33.0369 46.2604 32.4449 45.902L24.9462 41.2119C24.286 40.8139 23.4294 40.6998 22.5954 40.8953L0 46.0292Z" fill="white"/>
<path d="M23.9926 73.6175L19.4717 83.0171L19.9163 83.2312L24.3425 74.0233C24.7126 73.2552 25.3372 72.6524 26.058 72.3669L34.7709 69.2526L33.2293 72.4584L33.2199 72.477C32.9577 72.9627 32.5449 73.3398 32.0748 73.5136L25.4319 75.8481C24.8484 76.0646 24.3379 76.5518 24.0431 77.1795L22.4169 80.6243L20.9171 83.7441L21.3532 83.9528L22.7784 80.9867C23.067 80.3861 23.5543 79.916 24.1168 79.6925L31.0468 77.1989C31.1577 77.1555 31.264 77.0988 31.3672 77.0329C31.3812 77.1555 31.4037 77.2742 31.4393 77.3874L33.8554 84.3772C34.0315 84.9544 33.9686 85.6294 33.6785 86.2292L32.2532 89.1953L32.6885 89.404L34.1882 86.285L35.8648 82.8642C36.1705 82.242 36.2326 81.5422 36.0371 80.9502L33.7142 74.3026C33.5574 73.8263 33.5939 73.2707 33.8088 72.7602L33.8181 72.7416L35.3598 69.535L38.3662 78.2905C38.5935 79.0299 38.5105 79.8927 38.142 80.6593L33.7142 89.8664L34.1572 90.0805L38.6781 80.6802L40.7861 76.3812C41.1632 75.6115 41.2408 74.7495 40.9995 74.0187L38.0823 65.6673C37.8805 65.0637 37.924 64.3437 38.2025 63.6889L45.4405 48.6659L45.3078 48.1988L44.8237 48.3672L37.6051 63.37L37.5919 63.3987C37.2536 64.0202 36.7167 64.5058 36.1201 64.7262L27.7486 67.6465C27.027 67.9134 26.4009 68.5132 26.0363 69.2875L23.9926 73.6175ZM40.3059 63.0775L43.3154 71.8447C43.5412 72.5864 43.4605 73.45 43.0904 74.2181L35.217 90.5903L35.6616 90.8052L45.7462 69.9438C46.1233 69.1742 46.1915 68.3076 45.9487 67.5759L43.0322 59.2269C42.8135 58.5697 42.8794 57.7962 43.2115 57.1057L46.2148 50.8616L45.8905 49.9429L40.5014 61.0773C40.1864 61.7259 40.1142 62.4545 40.3059 63.0775ZM17.8928 82.2583L18.4119 82.5074L26.2861 66.1359C26.6562 65.3678 27.2792 64.7642 28 64.4787L36.7284 61.3566C37.3351 61.1184 37.8596 60.6064 38.1692 59.9546L43.5575 48.8086L42.5838 49.1128L42.5776 49.1267L39.5789 55.36C39.2476 56.049 38.6843 56.5835 38.0357 56.8225L29.6913 59.7568C28.969 60.0252 28.3452 60.6227 27.9775 61.397L17.8928 82.2583Z" fill="white"/>
<path d="M54.4225 80.7201L58.9481 90.1173L59.3926 89.9039L54.9586 80.6999C54.5885 79.931 54.507 79.0675 54.7336 78.3258L57.7354 69.5733L59.2793 72.7784L59.2879 72.797C59.5036 73.306 59.5408 73.863 59.3833 74.3386L57.0635 80.987C56.8687 81.5782 56.9308 82.2811 57.2373 82.9026L58.9155 86.3233L60.4175 89.4407L60.8528 89.2305L59.4244 86.2659C59.135 85.6662 59.0714 84.992 59.2475 84.4132L61.6224 77.4413C61.6574 77.3272 61.6799 77.2093 61.6923 77.0875C61.797 77.1535 61.9033 77.2093 62.0143 77.252L68.9846 79.7247C69.5455 79.9473 70.0335 80.4175 70.3222 81.0188L71.7505 83.9833L72.1858 83.7731L70.6829 80.6549L69.056 77.2109C68.7604 76.5832 68.2522 76.0983 67.6672 75.8818L61.0227 73.5496C60.5525 73.375 60.1413 73.0003 59.8768 72.5138L59.8674 72.4944L58.3235 69.2893L67.0418 72.4021C67.7611 72.686 68.3841 73.2881 68.7534 74.0554L73.1866 83.2602L73.6304 83.0477L69.1041 73.6497L67.0597 69.3204C66.6935 68.5453 66.0681 67.9471 65.3458 67.6794L56.9999 64.749C56.4017 64.5294 55.8663 64.0468 55.5281 63.4207L48.3025 48.3915L47.8556 48.2038L47.6849 48.6871L54.9066 63.6884L54.9206 63.7163C55.1944 64.3688 55.2402 65.0912 55.04 65.6948L52.0988 74.0593C51.8575 74.7902 51.9358 75.6537 52.3137 76.4218L54.4225 80.7201ZM56.3629 61.395L65.0921 64.5124C65.8129 64.7987 66.4367 65.4007 66.8067 66.1696L74.6895 82.5364L75.1348 82.3238L65.1231 61.4275C64.7569 60.6525 64.1215 60.0589 63.3984 59.792L55.054 56.8624C54.4038 56.6234 53.8406 56.0896 53.5085 55.3991L50.5028 49.1558L49.5819 48.8361L54.9213 59.9945C55.2317 60.6455 55.7562 61.1568 56.3629 61.395ZM57.37 90.8784L57.8882 90.6278L50.0063 74.2603C49.6362 73.4914 49.5532 72.6286 49.7805 71.8869L52.7854 63.1174C52.9778 62.4944 52.9049 61.7658 52.5891 61.1164L47.2395 49.9518L46.8702 50.903L46.8772 50.9162L49.8775 57.1487C50.2095 57.8376 50.2763 58.6112 50.0582 59.2675L47.1449 67.6189C46.9036 68.3513 46.982 69.211 47.3583 69.9822L57.37 90.8784Z" fill="white"/>
<path d="M78.9576 61.3696L89.1244 63.6957L89.2361 63.2146L79.2757 60.9382C78.4447 60.7474 77.7185 60.2726 77.2809 59.6325L72.3131 51.8265L75.7812 52.6195L75.8014 52.6241C76.3328 52.7731 76.7921 53.0912 77.0652 53.5109L80.8142 59.4719C81.1548 59.9932 81.7421 60.3827 82.4194 60.5317L86.1397 61.3533L89.5131 62.1245L89.621 61.6536L86.4128 60.9212C85.7626 60.7722 85.1962 60.4014 84.8541 59.9032L80.8871 53.6971C80.8196 53.5986 80.7413 53.5071 80.6544 53.4217C80.7707 53.3806 80.8809 53.3333 80.9841 53.2727L87.2647 49.3686C87.7884 49.0684 88.4611 48.9799 89.1105 49.1304L92.3179 49.8628L92.4257 49.3919L89.0515 48.6207L85.3444 47.744C84.6702 47.5834 83.9735 47.678 83.4397 48L77.4718 51.7381C77.042 51.9965 76.4919 52.0841 75.9472 51.9871L75.9263 51.9825L72.4582 51.1896L80.3301 46.3179C81.0004 45.9323 81.86 45.8222 82.6902 46.0122L92.6492 48.2902L92.7601 47.8107L82.5917 45.4847L77.9326 44.3814C77.0978 44.1843 76.2405 44.2999 75.581 44.6972L68.0839 49.3911C67.5392 49.7216 66.8278 49.8396 66.1272 49.7123L49.8737 45.9828L49.4485 46.2155L49.72 46.6508L65.9495 50.3656L65.9797 50.3726C66.6609 50.565 67.2529 50.9801 67.5997 51.5131L72.3022 59.0296C72.7227 59.6744 73.4466 60.1523 74.2822 60.3362L78.9576 61.3696ZM65.0658 47.7967L72.9477 42.9197C73.6212 42.5348 74.4808 42.4231 75.3118 42.6132L93.0216 46.664L93.1325 46.1829L70.5558 40.9707C69.7217 40.7729 68.8613 40.8993 68.2018 41.2973L60.7062 45.9913C60.1142 46.3505 59.3454 46.4576 58.5982 46.2861L51.8443 44.7406L51.0204 45.2604L63.071 48.0489C63.774 48.2126 64.5009 48.1218 65.0658 47.7967ZM88.7349 65.4033L88.863 64.8424L71.154 60.7908C70.3222 60.6 69.596 60.1267 69.1577 59.4866L64.1797 51.6667C63.8128 51.1275 63.1975 50.7303 62.4938 50.572L50.4307 47.7874L50.9436 48.6696L50.9575 48.6727L57.7005 50.2159C58.4461 50.3858 59.0917 50.8171 59.4687 51.3967L64.1782 58.883C64.6003 59.5285 65.3218 60.0041 66.1582 60.1911L88.7349 65.4033Z" fill="white"/>
<path d="M79.1417 30.1226L87.3029 23.6279L86.9957 23.2408L79.0036 29.6044C78.3355 30.1358 77.5116 30.4066 76.7381 30.35L67.5379 29.3615L70.3209 27.1457L70.338 27.1332C70.7857 26.8105 71.321 26.6507 71.8199 26.6988L78.8174 27.4878C79.4365 27.5468 80.1076 27.3303 80.6468 26.8943L83.6098 24.5L86.3176 22.3446L86.0166 21.9668L83.4423 24.0166C82.9209 24.4317 82.2777 24.6427 81.6741 24.5993L74.3492 23.8281C74.2305 23.8195 74.1102 23.8234 73.9884 23.8382C74.0295 23.7218 74.0613 23.6054 74.0776 23.4875L74.945 16.1432C75.0374 15.5465 75.3881 14.9662 75.9102 14.5519L78.4845 12.5021L78.1835 12.125L75.4757 14.2803L72.477 16.6304C71.9316 17.0571 71.5708 17.6608 71.4894 18.2784L70.6871 25.2751C70.6212 25.7724 70.3465 26.2565 69.9307 26.622L69.9144 26.6351L67.1314 28.851L68.2346 19.6594C68.3518 18.8952 68.8018 18.1542 69.4682 17.6243L77.4619 11.2622L77.1562 10.8766L68.9942 17.3721L65.2251 20.3251C64.5508 20.8542 64.1063 21.5967 64.0046 22.3594L62.9968 31.1475C62.9153 31.7799 62.5631 32.4083 62.027 32.8769L48.9723 43.2525L48.8885 43.7304L49.3975 43.7894L62.4258 33.4239L62.4506 33.4045C63.0255 32.9918 63.7199 32.7877 64.353 32.8498L73.1613 33.8638C73.9271 33.9375 74.7526 33.6699 75.4175 33.1314L79.1417 30.1226ZM59.867 32.5115L60.9733 23.309C61.0928 22.5425 61.5413 21.8008 62.2093 21.2701L76.423 9.95647L76.1166 9.56932L57.9576 23.9623C57.2826 24.4914 56.845 25.2417 56.7449 26.0059L55.7363 34.7918C55.6478 35.4792 55.2522 36.1464 54.6524 36.6236L49.2307 40.9381L49.1229 41.9064L58.8203 34.2277C59.3867 33.7808 59.7692 33.1562 59.867 32.5115ZM88.3946 24.9981L88.0354 24.5481L73.8208 35.8601C73.1528 36.3908 72.3296 36.6631 71.5561 36.6065L62.3396 35.6188C61.6887 35.5692 60.9943 35.8019 60.4318 36.2535L50.7297 43.943L51.7383 44.0928L51.7499 44.0835L57.1631 39.7767C57.7613 39.3003 58.5007 39.0644 59.1889 39.1311L67.9786 40.1219C68.7459 40.1949 69.5676 39.928 70.2356 39.3903L88.3946 24.9981Z" fill="white"/>
<path d="M116.567 27.2422C117.221 27.2422 117.657 26.7332 117.657 26.1281C117.657 25.4973 117.197 25.0131 116.567 25.0131C115.961 25.0131 115.5 25.5221 115.5 26.1281C115.5 26.7332 115.937 27.2422 116.567 27.2422Z" fill="white"/>
<path d="M119.572 27.2422C120.25 27.2422 120.662 26.7332 120.662 26.1281C120.662 25.4973 120.226 25.0131 119.596 25.0131C118.966 25.0131 118.482 25.5221 118.482 26.1281C118.482 26.7332 118.942 27.2422 119.572 27.2422Z" fill="white"/>
<path d="M154.269 42.4834C153.615 42.4834 153.154 42.9924 153.154 43.5983C153.154 44.2283 153.615 44.7373 154.221 44.7373H154.245C154.923 44.7373 155.336 44.2283 155.336 43.5983C155.336 42.9683 154.899 42.4834 154.269 42.4834Z" fill="white"/>
<path d="M151.24 42.4834C150.634 42.4834 150.15 42.9924 150.15 43.5983C150.15 44.2283 150.61 44.7373 151.216 44.7373H151.24C151.894 44.7373 152.306 44.2283 152.306 43.5983C152.306 42.9683 151.87 42.4834 151.24 42.4834Z" fill="white"/>
<path d="M157.855 26.564H157.879C158.534 26.564 158.945 26.055 158.945 25.425C158.945 24.795 158.509 24.3101 157.879 24.3101C157.273 24.3101 156.789 24.8191 156.789 25.425C156.789 26.055 157.249 26.564 157.855 26.564Z" fill="white"/>
<path d="M160.86 26.564H160.884C161.563 26.564 161.975 26.055 161.975 25.425C161.975 24.795 161.538 24.3101 160.908 24.3101C160.278 24.3101 159.794 24.8191 159.794 25.425C159.794 26.055 160.254 26.564 160.86 26.564Z" fill="white"/>
<path d="M190.034 42.5321C189.428 42.5321 188.943 43.041 188.943 43.6462C188.943 44.277 189.404 44.7852 190.009 44.7852H190.034C190.688 44.7852 191.1 44.277 191.1 43.6462C191.1 43.017 190.664 42.5321 190.034 42.5321Z" fill="white"/>
<path d="M196.673 36.9589C196.673 32.258 193.474 29.108 188.846 29.108C186.981 29.108 185.793 29.4959 185.284 29.738L185.769 31.3378C186.472 30.998 187.514 30.7318 188.774 30.7318C192.287 30.7318 194.613 32.9609 194.613 36.8867C194.613 37.4679 194.565 38.0249 194.468 38.5098H184.533C183.031 38.4858 182.013 37.1769 182.037 35.7959V29.108L180.074 29.7868V35.1899C180.074 37.2739 179.299 38.5098 177.749 38.5098C176.27 38.5098 175.325 37.104 175.325 35.7718V30.1988L173.363 30.901V35.5779C173.363 37.2739 172.66 38.5098 171.182 38.5098C169.655 38.5098 168.686 37.1288 168.686 35.7718V31.0949L166.723 31.7979V35.5779C166.723 37.2739 165.972 38.5098 164.494 38.5098C163.016 38.4858 161.975 37.1529 161.999 35.7718V29.108L160.036 29.7868V35.5779C160.036 37.263 159.293 38.492 157.835 38.5083C156.343 38.4718 155.336 37.1467 155.36 35.7718V29.108L153.397 29.7868V35.5779C153.397 37.2739 152.646 38.5098 151.168 38.5098H123.666C122.116 38.5098 121.486 37.2739 121.486 35.1899V29.3019C120.856 29.2049 119.838 29.1328 118.505 29.1328C115.234 29.1328 112.133 30.4168 112.133 34.0517C112.133 37.3228 114.871 38.7519 117.754 38.7519C118.336 38.7519 119.111 38.7038 120.274 38.5098C121.001 39.721 122.212 40.1089 123.109 40.1089H151.895C153.349 40.1089 154.439 39.2128 154.923 37.9528C155.699 39.2609 156.814 40.1089 158.534 40.1089C159.988 40.1089 161.102 39.2128 161.562 37.9528C162.338 39.2609 163.453 40.1089 165.173 40.1089C165.19 40.1089 165.204 40.1073 165.219 40.1066L165.221 40.1089C166.675 40.1089 167.765 39.2128 168.25 37.9528C168.977 39.2609 170.164 40.1089 171.836 40.1089C173.29 40.1089 174.405 39.2128 174.865 37.9528C175.616 39.3579 176.779 40.1089 178.475 40.1089C179.517 40.1089 180.923 39.624 181.601 37.9039C182.304 39.2609 183.491 40.0848 185.212 40.1089H197.012L197.69 38.5098H196.552C196.624 38.0249 196.673 37.516 196.673 36.9589ZM119.547 37.104C119.062 37.1529 118.505 37.201 117.996 37.201C116.034 37.201 114.144 36.3048 114.144 34.0029C114.144 31.7249 115.84 30.6349 118.021 30.6349C118.651 30.6349 119.111 30.6589 119.547 30.7559V37.104Z" fill="white"/>
<path d="M220.928 35.1903C220.928 37.261 220.161 38.4931 218.63 38.5086C217.139 38.4722 216.13 37.1462 216.154 35.7722V24.3104L214.192 25.0133V35.5774C214.192 37.2742 213.441 38.5094 211.963 38.5094H211.938H210.291V34.1723C210.291 31.3373 209.394 29.1083 205.881 29.1083C202.731 29.1083 200.816 31.6523 200.816 34.8993C200.816 38.1222 202.973 40.1092 206.026 40.1092H208.255C208.134 42.4112 207.359 42.9194 205.42 43.2592L205.663 44.8102C208.231 44.8583 210.291 42.9194 210.266 40.1092H212.641C212.658 40.1092 212.672 40.1077 212.688 40.1069L212.689 40.1092C214.143 40.1092 215.234 39.2123 215.718 37.9523C216.494 39.2612 217.608 40.1092 219.329 40.1092H219.329C220.783 40.1084 222.891 39.1634 222.891 35.4323V24.3104L220.928 25.0133V35.1903ZM208.328 38.5094H206.511C204.572 38.5094 202.707 37.7343 202.682 34.7294C202.61 31.8463 204.063 30.4893 205.711 30.4893C207.746 30.4893 208.328 32.1854 208.328 33.4454V38.5094Z" fill="white"/>
<path d="M224.829 40.1089H226.792V24.31L224.829 25.013V40.1089Z" fill="white"/>
<path d="M241.499 42.4834C240.845 42.4834 240.384 42.9924 240.384 43.5983C240.384 44.2283 240.821 44.7373 241.45 44.7373H241.475C242.129 44.7373 242.565 44.2283 242.565 43.5983C242.565 42.9683 242.104 42.4834 241.499 42.4834Z" fill="white"/>
<path d="M247.266 35.1899C247.266 37.2739 246.49 38.5091 244.94 38.5091H238.179C235.975 38.5091 234.545 36.5469 234.545 34.39C234.545 32.064 236.071 30.61 237.186 29.883L236.459 28.793C234.981 29.3989 232.752 31.2889 232.752 34.4141C232.752 38.267 235.66 40.1089 238.179 40.1089H245.667C247.121 40.1089 249.229 39.1639 249.229 35.432V29.108L247.266 29.7868V35.1899Z" fill="white"/>
<path d="M257.419 29.1082C254.269 29.1082 252.355 31.6522 252.355 34.8992C252.355 38.1221 254.342 40.3271 257.637 40.3271C258.485 40.3271 259.188 40.2542 259.793 40.1091C259.673 42.4111 258.849 42.9922 256.958 43.2591L257.201 44.8101C260.521 44.7371 261.829 42.6532 261.829 39.1641V34.1722C261.829 31.3372 260.932 29.1082 257.419 29.1082ZM259.866 38.6071C259.333 38.7281 258.703 38.8002 257.904 38.8002C255.941 38.8002 254.244 37.7342 254.22 34.7301C254.148 32.4281 255.19 30.4892 257.249 30.4892C259.285 30.4892 259.866 32.1853 259.866 33.4453V38.6071Z" fill="white"/>
<path d="M265.173 38.6066C265.294 42.6286 264.106 43.0895 262.265 43.2586L262.507 44.8096C265.754 44.7126 267.111 42.8226 267.111 39.3335V31.3127L265.173 32.0156V38.6066Z" fill="white"/>
<path d="M280.05 33.6395C279.444 31.0225 277.893 29.1085 275.107 29.1085C273.847 29.1085 272.636 29.6415 271.884 30.1504L272.223 31.6525C272.878 31.1924 273.895 30.7075 274.84 30.7075C276.755 30.7075 277.796 32.0164 278.16 33.8815L279.178 38.5096H270.019L269.34 40.1094H281.504L280.05 33.6395Z" fill="white"/>
<path d="M122.63 59.6254C122.63 63.4993 120.157 66.3374 115.995 66.3374H112.141V52.9135H115.995C120.157 52.9135 122.63 55.7516 122.63 59.6254ZM120.904 59.6254C120.904 56.7679 119.178 54.4473 115.899 54.4473H113.751V64.8035H115.899C119.178 64.8035 120.904 62.4829 120.904 59.6254Z" fill="white"/>
<path d="M133.101 52.914H134.712V61.3903C134.712 64.4394 132.89 66.5684 129.822 66.5684C126.754 66.5684 124.932 64.4394 124.932 61.3903V52.914H126.543V61.218C126.543 63.3842 127.502 65.0337 129.822 65.0337C132.142 65.0337 133.101 63.3842 133.101 61.218V52.914Z" fill="white"/>
<path d="M137.858 52.914H141.347C144.013 52.914 145.835 54.4866 145.835 56.8833C145.835 60.0666 142.939 60.6617 142.556 60.7191L146.276 66.3379H144.339L140.715 60.8533H139.468V66.3379H137.858V52.914ZM144.224 56.8833C144.224 55.4068 143.246 54.4478 141.444 54.4478H139.468V59.3187H141.444C143.246 59.3187 144.224 58.3605 144.224 56.8833Z" fill="white"/>
<path d="M160.889 59.6255C160.889 63.4993 158.128 66.5679 154.254 66.5679C150.38 66.5679 147.619 63.4993 147.619 59.6255C147.619 55.7516 150.38 52.6839 154.254 52.6839C158.128 52.6839 160.889 55.7516 160.889 59.6255ZM159.164 59.6255C159.164 56.768 157.188 54.2177 154.254 54.2177C151.32 54.2177 149.345 56.768 149.345 59.6255C149.345 62.483 151.32 65.0332 154.254 65.0332C157.188 65.0332 159.164 62.483 159.164 59.6255Z" fill="white"/>
<path d="M171.36 52.914H172.971V61.3903C172.971 64.4394 171.149 66.5684 168.081 66.5684C165.013 66.5684 163.191 64.4394 163.191 61.3903V52.914H164.802V61.218C164.802 63.3842 165.761 65.0337 168.081 65.0337C170.401 65.0337 171.36 63.3842 171.36 61.218V52.914Z" fill="white"/>
<path d="M176.117 52.914H179.645C182.407 52.914 183.96 54.333 183.96 56.5768C183.96 58.3985 182.637 59.1658 182.445 59.2039C182.637 59.2426 184.688 59.837 184.688 62.502C184.688 64.842 182.963 66.3379 180.316 66.3379H176.117V52.914ZM179.914 58.7058C181.429 58.7058 182.349 57.881 182.349 56.5768C182.349 55.2726 181.429 54.4478 179.914 54.4478H177.727V58.7058H179.914ZM183.078 62.502C183.078 61.2366 182.234 60.2008 180.316 60.2008H177.727V64.8032H180.316C182.234 64.8032 183.078 63.7682 183.078 62.502Z" fill="white"/>
<path d="M192.283 52.914H193.894V64.8032H199.915V66.3379H192.283V52.914Z" fill="white"/>
<path d="M214.068 59.6255C214.068 63.4993 211.307 66.5679 207.433 66.5679C203.559 66.5679 200.798 63.4993 200.798 59.6255C200.798 55.7516 203.559 52.6839 207.433 52.6839C211.307 52.6839 214.068 55.7516 214.068 59.6255ZM212.343 59.6255C212.343 56.768 210.367 54.2177 207.433 54.2177C204.5 54.2177 202.524 56.768 202.524 59.6255C202.524 62.483 204.5 65.0332 207.433 65.0332C210.367 65.0332 212.343 62.483 212.343 59.6255Z" fill="white"/>
<path d="M222.526 58.9738H227.474V64.8036C227.474 64.8036 225.69 66.5679 222.2 66.5679C218.326 66.5679 215.527 63.4993 215.527 59.6255C215.527 55.7524 218.326 52.6839 222.2 52.6839C225.671 52.6839 227.109 54.5824 227.109 54.5824L225.958 55.7136C225.958 55.7136 224.673 54.2177 222.2 54.2177C219.285 54.2177 217.252 56.7688 217.252 59.6255C217.252 62.483 219.285 65.034 222.2 65.034C224.655 65.034 225.881 64.0556 225.881 64.0556V60.5076H222.526V58.9738Z" fill="white"/>
<path d="M230.389 52.914H232V66.3379H230.389V52.914Z" fill="white"/>
<path d="M238.981 60.2969C237.025 59.3953 235.298 58.4946 235.298 56.212C235.298 54.6401 236.602 52.6834 239.172 52.6834C241.704 52.6834 242.989 54.6401 242.989 54.6401L241.781 55.6177C241.781 55.6177 240.84 54.218 239.172 54.218C237.696 54.218 236.909 55.253 236.909 56.212C236.909 57.5736 238.06 58.1105 239.901 58.9546C241.953 59.8942 243.238 60.757 243.238 62.9239C243.238 65.1103 241.435 66.5674 239.076 66.5674C235.893 66.5674 234.8 63.7673 234.8 63.7673L236.142 62.962C236.142 62.962 236.948 65.0335 239.076 65.0335C240.361 65.0335 241.588 64.305 241.588 62.9239C241.588 61.5243 240.476 60.9874 238.981 60.2969Z" fill="white"/>
<path d="M248.358 54.4481H244.504V52.9142H253.823V54.4481H249.969V66.3374H248.358V54.4481Z" fill="white"/>
<path d="M255.933 52.914H257.544V66.3379H255.933V52.914Z" fill="white"/>
<path d="M270.45 55.7904C270.45 55.7904 269.204 54.2177 266.749 54.2177C263.834 54.2177 261.84 56.7688 261.84 59.6255C261.84 62.483 263.834 65.034 266.749 65.034C269.185 65.034 270.622 63.2503 270.622 63.2503L271.715 64.3621C271.715 64.3621 269.894 66.5679 266.749 66.5679C262.875 66.5679 260.114 63.4993 260.114 59.6255C260.114 55.7524 262.875 52.6839 266.749 52.6839C269.894 52.6839 271.563 54.736 271.563 54.736L270.45 55.7904Z" fill="white"/>
<path d="M277.239 60.2969C275.283 59.3953 273.557 58.4946 273.557 56.212C273.557 54.6401 274.861 52.6834 277.431 52.6834C279.962 52.6834 281.247 54.6401 281.247 54.6401L280.039 55.6177C280.039 55.6177 279.1 54.218 277.431 54.218C275.954 54.218 275.168 55.253 275.168 56.212C275.168 57.5736 276.319 58.1105 278.16 58.9546C280.211 59.8942 281.496 60.757 281.496 62.9239C281.496 65.1103 279.694 66.5674 277.335 66.5674C274.152 66.5674 273.059 63.7673 273.059 63.7673L274.401 62.962C274.401 62.962 275.206 65.0335 277.335 65.0335C278.62 65.0335 279.848 64.305 279.848 62.9239C279.848 61.5243 278.735 60.9874 277.239 60.2969Z" fill="white"/>
</svg>
